<?xml version="1.0" standalone="no"?>
<!DOCTYPE svg PUBLIC "-//W3C//DTD SVG 20010904//EN"
 "http://www.w3.org/TR/2001/REC-SVG-20010904/DTD/svg10.dtd">
<svg version="1.0" xmlns="http://www.w3.org/2000/svg"
 width="700.000000pt" height="700.000000pt" viewBox="0 0 700.000000 700.000000"
 preserveAspectRatio="xMidYMid meet">
<metadata>
Created by potrace 1.14, written by Peter Selinger 2001-2017
</metadata>
<g transform="translate(0.000000,700.000000) scale(0.100000,-0.100000)"
fill="#000000" stroke="none">
<path d="M3250 5689 c-150 -17 -162 -19 -305 -53 -168 -41 -405 -140 -560
-236 -355 -218 -622 -562 -686 -884 -60 -303 -2 -568 163 -737 51 -52 151
-115 221 -138 71 -24 214 -51 269 -51 l37 0 -41 42 c-80 82 -151 217 -177 338
-38 178 -35 435 7 600 44 175 150 350 290 482 111 104 208 165 402 251 35 15
137 47 151 47 4 0 7 -881 8 -1957 0 -1077 0 -1995 1 -2040 l0 -83 323 0 324 0
0 1125 c0 619 3 1128 6 1132 16 16 150 31 251 28 159 -4 255 -37 343 -118 63
-58 100 -116 133 -205 45 -124 55 -194 54 -402 0 -148 -10 -365 -19 -412 -2
-10 -7 -64 -11 -121 -3 -56 -8 -110 -10 -120 -5 -26 -17 -260 -18 -357 -2 -81
7 -189 19 -237 3 -13 7 -31 9 -40 21 -88 68 -171 134 -238 99 -100 221 -141
399 -132 131 7 142 9 315 54 109 29 135 40 126 50 -6 7 -16 13 -22 13 -12 0
-88 53 -116 80 -53 53 -112 156 -136 235 -39 136 -45 249 -30 580 3 77 9 210
13 295 12 271 7 523 -12 630 -3 14 -7 39 -10 56 -10 64 -48 171 -87 246 -146
283 -488 405 -1015 365 -29 -2 -53 -1 -53 3 0 4 8 18 19 31 10 13 42 60 72
104 30 44 66 96 80 115 14 19 106 151 205 293 98 141 235 337 303 435 263 376
599 858 616 885 l17 27 -259 0 -259 0 -37 -67 c-20 -38 -50 -90 -65 -118 -31
-55 -117 -208 -165 -295 -16 -30 -48 -86 -70 -125 -51 -89 -76 -135 -117 -210
-18 -33 -44 -77 -57 -97 -12 -21 -23 -39 -23 -42 0 -2 -25 -48 -56 -102 -31
-55 -68 -121 -83 -149 -15 -27 -51 -93 -80 -145 -30 -52 -64 -113 -76 -136
-44 -78 -50 -89 -64 -106 -8 -10 -10 -18 -6 -18 4 0 1 -8 -7 -17 -8 -10 -33
-52 -56 -93 -58 -107 -92 -166 -93 -160 0 3 -1 431 -1 953 l-1 947 -51 1
c-171 5 -320 5 -376 -2z"/>
</g>
</svg>
