<?xml version="1.0" standalone="no"?>
<!DOCTYPE svg PUBLIC "-//W3C//DTD SVG 20010904//EN"
 "http://www.w3.org/TR/2001/REC-SVG-20010904/DTD/svg10.dtd">
<svg version="1.0" xmlns="http://www.w3.org/2000/svg"
 width="700.000000pt" height="700.000000pt" viewBox="0 0 700.000000 700.000000"
 preserveAspectRatio="xMidYMid meet">
<metadata>
Created by potrace 1.14, written by Peter Selinger 2001-2017
</metadata>
<g transform="translate(0.000000,700.000000) scale(0.100000,-0.100000)"
fill="#000000" stroke="none">
<path d="M1389 6728 c-1 -2 -2 -1437 -3 -3191 l-2 -3187 431 2 430 3 2 1515
c0 833 2 1522 2 1531 1 10 106 -89 257 -240 140 -141 829 -831 1530 -1533
l1276 -1278 564 0 c310 0 564 1 564 3 0 4 -1244 1254 -2532 2546 -467 467
-848 851 -848 854 0 5 99 102 170 167 36 33 252 236 395 371 44 41 112 105
150 141 39 36 113 106 165 155 52 50 109 102 125 117 17 15 89 83 160 151 72
67 146 137 165 155 19 18 91 85 160 150 69 65 141 132 160 150 19 18 94 87
165 155 72 67 146 137 165 155 19 18 91 85 160 150 69 65 143 135 165 155 95
88 407 382 565 532 41 39 91 85 110 103 91 84 170 160 170 165 0 3 -248 5
-550 5 l-550 0 -87 -82 c-48 -46 -94 -90 -103 -98 -9 -8 -81 -76 -161 -151
-79 -75 -162 -153 -184 -174 -22 -20 -100 -94 -174 -163 -73 -70 -145 -138
-160 -151 -14 -13 -90 -85 -169 -159 -78 -75 -155 -147 -170 -160 -15 -14 -94
-89 -177 -167 -82 -78 -183 -173 -224 -211 -93 -87 -126 -119 -297 -280 -77
-72 -157 -148 -179 -169 -91 -84 -309 -290 -565 -531 -161 -153 -205 -192
-210 -189 -3 2 -5 607 -4 1344 l0 1341 -428 0 c-235 0 -429 -1 -429 -2z"/>
</g>
</svg>
